<svg width="1000" height="1000" viewBox="0 0 1000 1000" fill="none" xmlns="http://www.w3.org/2000/svg">
<g clip-path="url(#clip0_433_312)">
<path d="M234.337 98.7969V87H162.697V98.7969H234.337ZM309.631 98.7969V87H237.991V98.7969H309.631ZM384.925 98.7969V87H313.284V98.7969H384.925ZM460.219 98.7969V87H388.578V98.7969H460.219ZM535.513 98.7969V87H463.872V98.7969H535.513ZM204.416 268.094V123.25H192.775V268.094H204.416ZM258.538 246.766L305.959 123.25H293.069L245.569 246.766H258.538ZM505.591 268.094V123.25H493.95V268.094H505.591ZM204.416 418.094V273.25H192.775V418.094H204.416ZM272.991 330.359L247.131 273.25H230.647L266.038 344.578L266.272 387H279.709L279.944 344.578L315.334 273.25H298.928L272.991 330.359ZM310.706 343.953V345.672C310.706 351.766 311.592 357.417 313.362 362.625C315.133 367.833 317.685 372.365 321.019 376.219C324.3 380.073 328.31 383.094 333.05 385.281C337.842 387.469 343.232 388.562 349.222 388.562C355.159 388.562 360.498 387.469 365.237 385.281C369.977 383.094 374.014 380.073 377.347 376.219C380.628 372.365 383.154 367.833 384.925 362.625C386.696 357.417 387.581 351.766 387.581 345.672V343.953C387.581 337.859 386.696 332.208 384.925 327C383.154 321.74 380.628 317.182 377.347 313.328C374.014 309.474 369.951 306.453 365.159 304.266C360.42 302.026 355.055 300.906 349.066 300.906C343.128 300.906 337.79 302.026 333.05 304.266C328.31 306.453 324.3 309.474 321.019 313.328C317.685 317.182 315.133 321.74 313.362 327C311.592 332.208 310.706 337.859 310.706 343.953ZM325.159 345.672V343.953C325.159 339.839 325.654 335.906 326.644 332.156C327.633 328.354 329.144 325.021 331.175 322.156C333.154 319.292 335.628 317.026 338.597 315.359C341.566 313.641 345.055 312.781 349.066 312.781C353.076 312.781 356.566 313.641 359.534 315.359C362.555 317.026 365.081 319.292 367.112 322.156C369.092 325.021 370.576 328.354 371.566 332.156C372.607 335.906 373.128 339.839 373.128 343.953V345.672C373.128 349.839 372.633 353.823 371.644 357.625C370.654 361.375 369.17 364.682 367.191 367.547C365.159 370.411 362.633 372.677 359.612 374.344C356.644 376.01 353.18 376.844 349.222 376.844C345.211 376.844 341.696 376.01 338.675 374.344C335.654 372.677 333.154 370.411 331.175 367.547C329.144 364.682 327.633 361.375 326.644 357.625C325.654 353.823 325.159 349.839 325.159 345.672ZM445.766 387H458.891V302.469H444.359V363.094C443.578 364.917 442.589 366.609 441.391 368.172C440.245 369.682 438.891 370.984 437.328 372.078C435.453 373.432 433.24 374.5 430.688 375.281C428.135 376.01 425.245 376.375 422.016 376.375C419.255 376.375 416.807 376.01 414.672 375.281C412.589 374.552 410.818 373.276 409.359 371.453C407.901 369.682 406.807 367.286 406.078 364.266C405.349 361.245 404.984 357.443 404.984 352.859V302.469H390.531V352.703C390.531 359.005 391.208 364.422 392.562 368.953C393.969 373.432 395.948 377.13 398.5 380.047C401.052 382.964 404.125 385.125 407.719 386.531C411.312 387.885 415.323 388.562 419.75 388.562C425.271 388.562 430.141 387.417 434.359 385.125C438.578 382.781 442.094 379.526 444.906 375.359L445.766 387ZM548.775 387H560.181L573.228 335.203L575.338 322.078L577.525 335.203L590.728 387H602.134L620.103 302.469H607.291L597.916 356.375L595.806 369.656L593.541 356.375L580.103 302.469H570.806L557.291 356.375L555.181 368.484L553.463 356.375L543.619 302.469H530.806L548.775 387ZM611.881 343.953V345.672C611.881 351.766 612.767 357.417 614.537 362.625C616.308 367.833 618.86 372.365 622.194 376.219C625.475 380.073 629.485 383.094 634.225 385.281C639.017 387.469 644.407 388.562 650.397 388.562C656.334 388.562 661.673 387.469 666.412 385.281C671.152 383.094 675.189 380.073 678.522 376.219C681.803 372.365 684.329 367.833 686.1 362.625C687.871 357.417 688.756 351.766 688.756 345.672V343.953C688.756 337.859 687.871 332.208 686.1 327C684.329 321.74 681.803 317.182 678.522 313.328C675.189 309.474 671.126 306.453 666.334 304.266C661.595 302.026 656.23 300.906 650.241 300.906C644.303 300.906 638.965 302.026 634.225 304.266C629.485 306.453 625.475 309.474 622.194 313.328C618.86 317.182 616.308 321.74 614.537 327C612.767 332.208 611.881 337.859 611.881 343.953ZM626.334 345.672V343.953C626.334 339.839 626.829 335.906 627.819 332.156C628.808 328.354 630.319 325.021 632.35 322.156C634.329 319.292 636.803 317.026 639.772 315.359C642.741 313.641 646.23 312.781 650.241 312.781C654.251 312.781 657.741 313.641 660.709 315.359C663.73 317.026 666.256 319.292 668.287 322.156C670.267 325.021 671.751 328.354 672.741 332.156C673.782 335.906 674.303 339.839 674.303 343.953V345.672C674.303 349.839 673.808 353.823 672.819 357.625C671.829 361.375 670.345 364.682 668.366 367.547C666.334 370.411 663.808 372.677 660.787 374.344C657.819 376.01 654.355 376.844 650.397 376.844C646.386 376.844 642.871 376.01 639.85 374.344C636.829 372.677 634.329 370.411 632.35 367.547C630.319 364.682 628.808 361.375 627.819 357.625C626.829 353.823 626.334 349.839 626.334 345.672ZM691.237 387H705.691V326.375C706.68 324.552 707.826 322.885 709.128 321.375C710.482 319.865 711.941 318.536 713.503 317.391C715.43 316.089 717.54 315.073 719.831 314.344C722.123 313.562 724.597 313.172 727.253 313.172C730.326 313.172 733.034 313.536 735.378 314.266C737.774 314.995 739.805 316.167 741.472 317.781C743.086 319.396 744.31 321.505 745.144 324.109C745.977 326.714 746.394 329.891 746.394 333.641V387H760.847V333.328C760.847 327.703 760.144 322.859 758.737 318.797C757.383 314.682 755.43 311.297 752.878 308.641C750.326 305.984 747.227 304.031 743.581 302.781C739.987 301.531 735.977 300.906 731.55 300.906C728.269 300.958 725.144 301.453 722.175 302.391C719.258 303.276 716.55 304.552 714.05 306.219C712.383 307.312 710.795 308.615 709.284 310.125C707.826 311.583 706.472 313.198 705.222 314.969L704.206 302.469H691.237V387ZM204.416 568.094V423.25H192.775V568.094H204.416ZM620.397 423.25L667.897 546.766H680.944L633.444 423.25H620.397ZM768.191 475.359C768.399 467.495 767.67 460.359 766.003 453.953C764.336 447.495 761.836 441.974 758.503 437.391C755.118 432.807 750.951 429.292 746.003 426.844C741.055 424.344 735.404 423.094 729.05 423.094C722.54 423.094 716.576 424.578 711.159 427.547C705.795 430.516 701.133 434.604 697.175 439.812C693.008 445.281 689.675 451.766 687.175 459.266C684.727 466.766 683.347 474.682 683.034 483.016C682.774 490.984 683.399 498.328 684.909 505.047C686.472 511.714 688.998 517.469 692.487 522.312C695.925 527.156 700.378 530.932 705.847 533.641C711.368 536.297 717.956 537.625 725.612 537.625C727.279 537.625 729.05 537.495 730.925 537.234C732.8 537.026 734.649 536.661 736.472 536.141C738.295 535.672 740.04 535.073 741.706 534.344C743.373 533.615 744.857 532.755 746.159 531.766L743.659 522.625C742.514 523.406 741.237 524.109 739.831 524.734C738.425 525.359 736.941 525.88 735.378 526.297C733.816 526.766 732.227 527.13 730.612 527.391C728.998 527.599 727.409 527.703 725.847 527.703C720.014 527.703 714.935 526.714 710.612 524.734C706.342 522.703 702.826 519.76 700.066 515.906C697.305 512.104 695.3 507.443 694.05 501.922C692.8 496.401 692.305 490.099 692.566 483.016C692.774 475.464 693.842 468.536 695.769 462.234C697.696 455.88 700.404 450.464 703.894 445.984C707.175 441.818 710.873 438.615 714.987 436.375C719.154 434.083 723.764 432.938 728.816 432.938C733.816 432.938 738.269 433.901 742.175 435.828C746.081 437.755 749.389 440.542 752.097 444.188C754.753 447.833 756.732 452.286 758.034 457.547C759.336 462.807 759.883 468.745 759.675 475.359C759.623 479.161 759.336 482.755 758.816 486.141C758.295 489.526 757.54 492.469 756.55 494.969C755.56 497.521 754.31 499.552 752.8 501.062C751.342 502.521 749.649 503.25 747.722 503.25C746.889 503.25 746.107 503.12 745.378 502.859C744.649 502.599 744.05 502.078 743.581 501.297C743.06 500.568 742.67 499.552 742.409 498.25C742.149 496.896 742.097 495.151 742.253 493.016L745.691 453.641C744.336 451.766 742.514 450.151 740.222 448.797C737.93 447.391 735.04 446.688 731.55 446.688C727.852 446.688 724.467 447.573 721.394 449.344C718.321 451.062 715.639 453.536 713.347 456.766C711.003 460.047 709.102 464.031 707.644 468.719C706.185 473.354 705.222 478.562 704.753 484.344C704.441 488.406 704.493 492.13 704.909 495.516C705.378 498.901 706.211 501.818 707.409 504.266C708.555 506.714 710.066 508.615 711.941 509.969C713.816 511.323 716.029 512 718.581 512C720.352 512 722.045 511.74 723.659 511.219C725.274 510.698 726.784 509.969 728.191 509.031C729.336 508.198 730.404 507.234 731.394 506.141C732.435 505.047 733.373 503.849 734.206 502.547C734.571 503.797 735.04 504.943 735.612 505.984C736.185 506.974 736.862 507.859 737.644 508.641C738.737 509.734 740.04 510.568 741.55 511.141C743.06 511.714 744.753 512 746.628 512C750.482 512 753.737 510.88 756.394 508.641C759.05 506.401 761.237 503.51 762.956 499.969C764.623 496.427 765.873 492.495 766.706 488.172C767.54 483.797 768.034 479.526 768.191 475.359ZM714.362 484.344C714.779 480.073 715.404 476.219 716.237 472.781C717.123 469.292 718.269 466.323 719.675 463.875C721.081 461.479 722.8 459.63 724.831 458.328C726.915 456.974 729.336 456.297 732.097 456.297C732.878 456.297 733.633 456.375 734.362 456.531C735.144 456.688 735.899 456.948 736.628 457.312L733.659 491.297L733.581 492.078C733.008 493.328 732.383 494.448 731.706 495.438C731.029 496.375 730.326 497.208 729.597 497.938C728.399 499.083 727.071 499.917 725.612 500.438C724.206 500.958 722.722 501.219 721.159 501.219C719.909 501.219 718.816 500.854 717.878 500.125C716.993 499.344 716.264 498.224 715.691 496.766C715.118 495.359 714.727 493.615 714.519 491.531C714.31 489.396 714.258 487 714.362 484.344ZM785.594 546.766L833.016 423.25H820.125L772.625 546.766H785.594ZM204.416 718.094V573.25H192.775V718.094H204.416ZM731.472 718.094V573.25H719.831V718.094H731.472ZM204.416 868.094V723.25H192.775V868.094H204.416ZM635.006 846.766L682.428 723.25H669.537L622.037 846.766H635.006ZM770.984 723.25L818.484 846.766H831.531L784.031 723.25H770.984ZM83.2812 926.062V913.484H13.5156V926.062H83.2812ZM83.2812 958.484V945.984H13.5156V958.484H83.2812ZM158.575 926.062V913.484H88.8094V926.062H158.575ZM158.575 958.484V945.984H88.8094V958.484H158.575ZM233.869 926.062V913.484H164.103V926.062H233.869ZM233.869 958.484V945.984H164.103V958.484H233.869ZM309.163 926.062V913.484H239.397V926.062H309.163ZM309.163 958.484V945.984H239.397V958.484H309.163ZM384.456 926.062V913.484H314.691V926.062H384.456ZM384.456 958.484V945.984H314.691V958.484H384.456ZM459.75 926.062V913.484H389.984V926.062H459.75ZM459.75 958.484V945.984H389.984V958.484H459.75ZM535.044 926.062V913.484H465.278V926.062H535.044ZM535.044 958.484V945.984H465.278V958.484H535.044ZM610.338 926.062V913.484H540.572V926.062H610.338ZM610.338 958.484V945.984H540.572V958.484H610.338ZM685.631 926.062V913.484H615.866V926.062H685.631ZM685.631 958.484V945.984H615.866V958.484H685.631ZM760.925 926.062V913.484H691.159V926.062H760.925ZM760.925 958.484V945.984H691.159V958.484H760.925ZM836.219 926.062V913.484H766.453V926.062H836.219ZM836.219 958.484V945.984H766.453V958.484H836.219ZM911.513 926.062V913.484H841.747V926.062H911.513ZM911.513 958.484V945.984H841.747V958.484H911.513ZM986.806 926.062V913.484H917.041V926.062H986.806ZM986.806 958.484V945.984H917.041V958.484H986.806Z" fill="white"/>
</g>
<defs>
<clipPath id="clip0_433_312">
<rect width="1000" height="1000" fill="white"/>
</clipPath>
</defs>
</svg>
