<svg width="1000" height="1000" viewBox="0 0 1000 1000" fill="none" xmlns="http://www.w3.org/2000/svg">
<g clip-path="url(#clip0_433_286)">
<path d="M55.4688 25.9844V-7.21875H41.0156V25.9844H9.29688V40.3594H41.0156V75.5938H55.4688V40.3594H87.2656V25.9844H55.4688ZM152.091 43.1719V31.2969H92.325V43.1719H152.091ZM227.384 43.1719V31.2969H167.619V43.1719H227.384ZM302.678 43.1719V31.2969H242.913V43.1719H302.678ZM377.972 43.1719V31.2969H318.206V43.1719H377.972ZM453.266 43.1719V31.2969H393.5V43.1719H453.266ZM528.559 43.1719V31.2969H468.794V43.1719H528.559ZM603.853 43.1719V31.2969H544.088V43.1719H603.853ZM679.147 43.1719V31.2969H619.381V43.1719H679.147ZM754.441 43.1719V31.2969H694.675V43.1719H754.441ZM829.734 43.1719V31.2969H769.969V43.1719H829.734ZM905.028 43.1719V31.2969H845.263V43.1719H905.028ZM958.994 25.9844V-7.21875H944.541V25.9844H912.822V40.3594H944.541V75.5938H958.994V40.3594H990.791V25.9844H958.994ZM53.8281 268.094V123.25H42.1875V268.094H53.8281ZM957.353 268.094V123.25H945.713V268.094H957.353ZM53.8281 418.094V273.25H42.1875V418.094H53.8281ZM957.353 418.094V273.25H945.713V418.094H957.353ZM53.8281 568.094V423.25H42.1875V568.094H53.8281ZM104.669 491.375H127.091C132.195 491.323 137.012 490.542 141.544 489.031C146.127 487.521 150.137 485.333 153.575 482.469C157.012 479.604 159.721 476.089 161.7 471.922C163.731 467.703 164.747 462.859 164.747 457.391C164.747 451.922 163.731 447.078 161.7 442.859C159.721 438.641 157.012 435.099 153.575 432.234C150.137 429.37 146.127 427.182 141.544 425.672C137.012 424.161 132.195 423.354 127.091 423.25H90.2156V537H104.669V491.375ZM104.669 479.5V435.125H127.091C130.424 435.177 133.497 435.724 136.309 436.766C139.174 437.807 141.648 439.292 143.731 441.219C145.762 443.146 147.351 445.49 148.497 448.25C149.695 451.01 150.294 454.109 150.294 457.547C150.294 460.984 149.695 464.057 148.497 466.766C147.351 469.422 145.736 471.688 143.653 473.562C141.57 475.438 139.122 476.896 136.309 477.938C133.497 478.927 130.424 479.448 127.091 479.5H104.669ZM219.572 450.906C213.426 450.906 207.931 452.26 203.087 454.969C198.296 457.625 194.181 461.271 190.744 465.906L190.666 463.797L190.041 452.469H176.291V537H190.822V482.781C191.759 480.177 192.931 477.833 194.337 475.75C195.796 473.615 197.489 471.818 199.416 470.359C201.551 468.693 204.051 467.443 206.916 466.609C209.78 465.724 212.983 465.281 216.525 465.281C219.285 465.281 221.916 465.438 224.416 465.75C226.968 466.01 229.65 466.453 232.462 467.078L234.416 452.938C232.957 452.312 230.77 451.818 227.853 451.453C224.989 451.089 222.228 450.906 219.572 450.906ZM276.819 538.562C285.048 538.562 291.949 536.922 297.522 533.641C303.147 530.307 307.366 526.505 310.178 522.234L301.35 515.359C298.694 518.797 295.36 521.557 291.35 523.641C287.34 525.724 282.756 526.766 277.6 526.766C273.694 526.766 270.126 526.036 266.897 524.578C263.668 523.12 260.907 521.115 258.616 518.562C256.376 516.167 254.605 513.406 253.303 510.281C252.053 507.156 251.246 503.536 250.881 499.422V498.875H311.272V492.391C311.272 486.505 310.517 481.036 309.006 475.984C307.548 470.932 305.308 466.531 302.288 462.781C299.267 459.083 295.465 456.193 290.881 454.109C286.35 451.974 281.038 450.906 274.944 450.906C270.1 450.906 265.36 451.896 260.725 453.875C256.142 455.854 252.053 458.693 248.459 462.391C244.814 466.141 241.897 470.724 239.709 476.141C237.522 481.505 236.428 487.599 236.428 494.422V497.703C236.428 503.589 237.418 509.031 239.397 514.031C241.376 519.031 244.136 523.354 247.678 527C251.22 530.646 255.465 533.484 260.413 535.516C265.413 537.547 270.881 538.562 276.819 538.562ZM274.944 462.781C278.642 462.781 281.819 463.458 284.475 464.812C287.183 466.167 289.423 467.938 291.194 470.125C292.965 472.312 294.345 474.917 295.334 477.938C296.324 480.906 296.819 483.693 296.819 486.297V487H251.35C251.923 483.094 252.913 479.656 254.319 476.688C255.777 473.667 257.548 471.115 259.631 469.031C261.715 467 264.058 465.464 266.663 464.422C269.267 463.328 272.027 462.781 274.944 462.781ZM370.941 514.578C370.941 515.932 370.68 517.208 370.159 518.406C369.639 519.604 368.883 520.698 367.894 521.688C366.279 523.302 364.04 524.578 361.175 525.516C358.31 526.401 354.951 526.844 351.097 526.844C348.649 526.844 346.175 526.583 343.675 526.062C341.175 525.542 338.909 524.656 336.878 523.406C334.795 522.156 333.05 520.516 331.644 518.484C330.29 516.453 329.508 513.953 329.3 510.984H314.847C314.847 514.578 315.654 518.042 317.269 521.375C318.935 524.708 321.331 527.625 324.456 530.125C327.529 532.677 331.305 534.734 335.784 536.297C340.264 537.807 345.368 538.562 351.097 538.562C356.097 538.562 360.706 537.964 364.925 536.766C369.144 535.568 372.764 533.875 375.784 531.688C378.805 529.5 381.149 526.87 382.816 523.797C384.534 520.724 385.394 517.312 385.394 513.562C385.394 510.073 384.639 507 383.128 504.344C381.67 501.688 379.534 499.344 376.722 497.312C373.909 495.333 370.446 493.641 366.331 492.234C362.217 490.776 357.555 489.5 352.347 488.406C348.389 487.625 345.107 486.818 342.503 485.984C339.951 485.151 337.92 484.214 336.409 483.172C334.847 482.13 333.753 480.958 333.128 479.656C332.503 478.354 332.191 476.87 332.191 475.203C332.191 473.589 332.581 472.026 333.362 470.516C334.144 469.005 335.316 467.677 336.878 466.531C338.389 465.385 340.29 464.474 342.581 463.797C344.925 463.12 347.633 462.781 350.706 462.781C353.675 462.781 356.331 463.198 358.675 464.031C361.071 464.865 363.102 465.958 364.769 467.312C366.435 468.667 367.737 470.229 368.675 472C369.612 473.719 370.081 475.49 370.081 477.312H384.534C384.534 473.615 383.727 470.177 382.112 467C380.55 463.771 378.31 460.958 375.394 458.562C372.477 456.167 368.935 454.292 364.769 452.938C360.602 451.583 355.915 450.906 350.706 450.906C345.862 450.906 341.409 451.557 337.347 452.859C333.336 454.161 329.873 455.932 326.956 458.172C324.04 460.411 321.774 463.042 320.159 466.062C318.545 469.031 317.737 472.234 317.737 475.672C317.737 479.161 318.519 482.234 320.081 484.891C321.644 487.495 323.857 489.76 326.722 491.688C329.534 493.667 332.92 495.359 336.878 496.766C340.889 498.172 345.316 499.37 350.159 500.359C354.118 501.141 357.425 502.026 360.081 503.016C362.737 503.953 364.873 504.995 366.487 506.141C368.102 507.286 369.248 508.562 369.925 509.969C370.602 511.323 370.941 512.859 370.941 514.578ZM446.234 514.578C446.234 515.932 445.974 517.208 445.453 518.406C444.932 519.604 444.177 520.698 443.188 521.688C441.573 523.302 439.333 524.578 436.469 525.516C433.604 526.401 430.245 526.844 426.391 526.844C423.943 526.844 421.469 526.583 418.969 526.062C416.469 525.542 414.203 524.656 412.172 523.406C410.089 522.156 408.344 520.516 406.938 518.484C405.583 516.453 404.802 513.953 404.594 510.984H390.141C390.141 514.578 390.948 518.042 392.562 521.375C394.229 524.708 396.625 527.625 399.75 530.125C402.823 532.677 406.599 534.734 411.078 536.297C415.557 537.807 420.661 538.562 426.391 538.562C431.391 538.562 436 537.964 440.219 536.766C444.438 535.568 448.057 533.875 451.078 531.688C454.099 529.5 456.443 526.87 458.109 523.797C459.828 520.724 460.688 517.312 460.688 513.562C460.688 510.073 459.932 507 458.422 504.344C456.964 501.688 454.828 499.344 452.016 497.312C449.203 495.333 445.74 493.641 441.625 492.234C437.51 490.776 432.849 489.5 427.641 488.406C423.682 487.625 420.401 486.818 417.797 485.984C415.245 485.151 413.214 484.214 411.703 483.172C410.141 482.13 409.047 480.958 408.422 479.656C407.797 478.354 407.484 476.87 407.484 475.203C407.484 473.589 407.875 472.026 408.656 470.516C409.438 469.005 410.609 467.677 412.172 466.531C413.682 465.385 415.583 464.474 417.875 463.797C420.219 463.12 422.927 462.781 426 462.781C428.969 462.781 431.625 463.198 433.969 464.031C436.365 464.865 438.396 465.958 440.062 467.312C441.729 468.667 443.031 470.229 443.969 472C444.906 473.719 445.375 475.49 445.375 477.312H459.828C459.828 473.615 459.021 470.177 457.406 467C455.844 463.771 453.604 460.958 450.688 458.562C447.771 456.167 444.229 454.292 440.062 452.938C435.896 451.583 431.208 450.906 426 450.906C421.156 450.906 416.703 451.557 412.641 452.859C408.63 454.161 405.167 455.932 402.25 458.172C399.333 460.411 397.068 463.042 395.453 466.062C393.839 469.031 393.031 472.234 393.031 475.672C393.031 479.161 393.812 482.234 395.375 484.891C396.938 487.495 399.151 489.76 402.016 491.688C404.828 493.667 408.214 495.359 412.172 496.766C416.182 498.172 420.609 499.37 425.453 500.359C429.411 501.141 432.719 502.026 435.375 503.016C438.031 503.953 440.167 504.995 441.781 506.141C443.396 507.286 444.542 508.562 445.219 509.969C445.896 511.323 446.234 512.859 446.234 514.578ZM502.7 538.562C510.929 538.562 517.83 536.922 523.403 533.641C529.028 530.307 533.247 526.505 536.059 522.234L527.231 515.359C524.575 518.797 521.242 521.557 517.231 523.641C513.221 525.724 508.638 526.766 503.481 526.766C499.575 526.766 496.007 526.036 492.778 524.578C489.549 523.12 486.789 521.115 484.497 518.562C482.257 516.167 480.486 513.406 479.184 510.281C477.934 507.156 477.127 503.536 476.763 499.422V498.875H537.153V492.391C537.153 486.505 536.398 481.036 534.888 475.984C533.429 470.932 531.19 466.531 528.169 462.781C525.148 459.083 521.346 456.193 516.763 454.109C512.231 451.974 506.919 450.906 500.825 450.906C495.981 450.906 491.242 451.896 486.606 453.875C482.023 455.854 477.934 458.693 474.341 462.391C470.695 466.141 467.778 470.724 465.591 476.141C463.403 481.505 462.309 487.599 462.309 494.422V497.703C462.309 503.589 463.299 509.031 465.278 514.031C467.257 519.031 470.018 523.354 473.559 527C477.101 530.646 481.346 533.484 486.294 535.516C491.294 537.547 496.763 538.562 502.7 538.562ZM500.825 462.781C504.523 462.781 507.7 463.458 510.356 464.812C513.065 466.167 515.304 467.938 517.075 470.125C518.846 472.312 520.226 474.917 521.216 477.938C522.205 480.906 522.7 483.693 522.7 486.297V487H477.231C477.804 483.094 478.794 479.656 480.2 476.688C481.658 473.667 483.429 471.115 485.513 469.031C487.596 467 489.94 465.464 492.544 464.422C495.148 463.328 497.908 462.781 500.825 462.781ZM557.994 525.203L609.009 462.703V452.469H540.259V464.422H590.025L539.556 526.375V537H611.822V525.203H557.994ZM746.941 537H760.066V452.469H745.534V513.094C744.753 514.917 743.764 516.609 742.566 518.172C741.42 519.682 740.066 520.984 738.503 522.078C736.628 523.432 734.415 524.5 731.862 525.281C729.31 526.01 726.42 526.375 723.191 526.375C720.43 526.375 717.982 526.01 715.847 525.281C713.764 524.552 711.993 523.276 710.534 521.453C709.076 519.682 707.982 517.286 707.253 514.266C706.524 511.245 706.159 507.443 706.159 502.859V452.469H691.706V502.703C691.706 509.005 692.383 514.422 693.737 518.953C695.144 523.432 697.123 527.13 699.675 530.047C702.227 532.964 705.3 535.125 708.894 536.531C712.487 537.885 716.498 538.562 720.925 538.562C726.446 538.562 731.316 537.417 735.534 535.125C739.753 532.781 743.269 529.526 746.081 525.359L746.941 537ZM766.531 537H780.984V476.375C781.974 474.552 783.12 472.885 784.422 471.375C785.776 469.865 787.234 468.536 788.797 467.391C790.724 466.089 792.833 465.073 795.125 464.344C797.417 463.562 799.891 463.172 802.547 463.172C805.62 463.172 808.328 463.536 810.672 464.266C813.068 464.995 815.099 466.167 816.766 467.781C818.38 469.396 819.604 471.505 820.438 474.109C821.271 476.714 821.688 479.891 821.688 483.641V537H836.141V483.328C836.141 477.703 835.438 472.859 834.031 468.797C832.677 464.682 830.724 461.297 828.172 458.641C825.62 455.984 822.521 454.031 818.875 452.781C815.281 451.531 811.271 450.906 806.844 450.906C803.562 450.958 800.438 451.453 797.469 452.391C794.552 453.276 791.844 454.552 789.344 456.219C787.677 457.312 786.089 458.615 784.578 460.125C783.12 461.583 781.766 463.198 780.516 464.969L779.5 452.469H766.531V537ZM879.169 538.562C887.398 538.562 894.299 536.922 899.872 533.641C905.497 530.307 909.716 526.505 912.528 522.234L903.7 515.359C901.044 518.797 897.71 521.557 893.7 523.641C889.69 525.724 885.106 526.766 879.95 526.766C876.044 526.766 872.476 526.036 869.247 524.578C866.018 523.12 863.257 521.115 860.966 518.562C858.726 516.167 856.955 513.406 855.653 510.281C854.403 507.156 853.596 503.536 853.231 499.422V498.875H913.622V492.391C913.622 486.505 912.867 481.036 911.356 475.984C909.898 470.932 907.658 466.531 904.638 462.781C901.617 459.083 897.815 456.193 893.231 454.109C888.7 451.974 883.388 450.906 877.294 450.906C872.45 450.906 867.71 451.896 863.075 453.875C858.492 455.854 854.403 458.693 850.809 462.391C847.164 466.141 844.247 470.724 842.059 476.141C839.872 481.505 838.778 487.599 838.778 494.422V497.703C838.778 503.589 839.768 509.031 841.747 514.031C843.726 519.031 846.486 523.354 850.028 527C853.57 530.646 857.815 533.484 862.763 535.516C867.763 537.547 873.231 538.562 879.169 538.562ZM877.294 462.781C880.992 462.781 884.169 463.458 886.825 464.812C889.533 466.167 891.773 467.938 893.544 470.125C895.315 472.312 896.695 474.917 897.684 477.938C898.674 480.906 899.169 483.693 899.169 486.297V487H853.7C854.273 483.094 855.263 479.656 856.669 476.688C858.127 473.667 859.898 471.115 861.981 469.031C864.065 467 866.408 465.464 869.013 464.422C871.617 463.328 874.377 462.781 877.294 462.781ZM957.353 568.094V423.25H945.713V568.094H957.353ZM53.8281 718.094V573.25H42.1875V718.094H53.8281ZM123.106 582H108.575V602.469H86.3875V613.641H108.575V659.578C108.575 664.786 109.252 669.24 110.606 672.938C112.012 676.583 113.914 679.552 116.309 681.844C118.705 684.188 121.518 685.906 124.747 687C128.028 688.042 131.544 688.562 135.294 688.562C137.533 688.562 139.773 688.458 142.012 688.25C144.304 688.042 146.466 687.729 148.497 687.312C150.528 686.948 152.403 686.505 154.122 685.984C155.841 685.411 157.299 684.76 158.497 684.031L156.466 673.797C155.58 674.005 154.434 674.266 153.028 674.578C151.674 674.839 150.216 675.099 148.653 675.359C147.039 675.62 145.398 675.854 143.731 676.062C142.065 676.219 140.45 676.297 138.887 676.297C136.752 676.297 134.721 676.036 132.794 675.516C130.919 674.995 129.252 674.083 127.794 672.781C126.335 671.531 125.19 669.839 124.356 667.703C123.523 665.568 123.106 662.859 123.106 659.578V613.641H155.294V602.469H123.106V582ZM160.119 643.953V645.672C160.119 651.766 161.004 657.417 162.775 662.625C164.546 667.833 167.098 672.365 170.431 676.219C173.712 680.073 177.723 683.094 182.462 685.281C187.254 687.469 192.645 688.562 198.634 688.562C204.572 688.562 209.91 687.469 214.65 685.281C219.39 683.094 223.426 680.073 226.759 676.219C230.041 672.365 232.567 667.833 234.337 662.625C236.108 657.417 236.994 651.766 236.994 645.672V643.953C236.994 637.859 236.108 632.208 234.337 627C232.567 621.74 230.041 617.182 226.759 613.328C223.426 609.474 219.364 606.453 214.572 604.266C209.832 602.026 204.468 600.906 198.478 600.906C192.541 600.906 187.202 602.026 182.462 604.266C177.723 606.453 173.712 609.474 170.431 613.328C167.098 617.182 164.546 621.74 162.775 627C161.004 632.208 160.119 637.859 160.119 643.953ZM174.572 645.672V643.953C174.572 639.839 175.067 635.906 176.056 632.156C177.046 628.354 178.556 625.021 180.587 622.156C182.567 619.292 185.041 617.026 188.009 615.359C190.978 613.641 194.468 612.781 198.478 612.781C202.489 612.781 205.978 613.641 208.947 615.359C211.968 617.026 214.494 619.292 216.525 622.156C218.504 625.021 219.989 628.354 220.978 632.156C222.02 635.906 222.541 639.839 222.541 643.953V645.672C222.541 649.839 222.046 653.823 221.056 657.625C220.067 661.375 218.582 664.682 216.603 667.547C214.572 670.411 212.046 672.677 209.025 674.344C206.056 676.01 202.593 676.844 198.634 676.844C194.624 676.844 191.108 676.01 188.087 674.344C185.067 672.677 182.567 670.411 180.587 667.547C178.556 664.682 177.046 661.375 176.056 657.625C175.067 653.823 174.572 649.839 174.572 645.672ZM295.178 687H308.303V602.469H293.772V663.094C292.991 664.917 292.001 666.609 290.803 668.172C289.657 669.682 288.303 670.984 286.741 672.078C284.866 673.432 282.652 674.5 280.1 675.281C277.548 676.01 274.657 676.375 271.428 676.375C268.668 676.375 266.22 676.01 264.084 675.281C262.001 674.552 260.23 673.276 258.772 671.453C257.314 669.682 256.22 667.286 255.491 664.266C254.761 661.245 254.397 657.443 254.397 652.859V602.469H239.944V652.703C239.944 659.005 240.621 664.422 241.975 668.953C243.381 673.432 245.36 677.13 247.913 680.047C250.465 682.964 253.538 685.125 257.131 686.531C260.725 687.885 264.735 688.562 269.163 688.562C274.683 688.562 279.553 687.417 283.772 685.125C287.991 682.781 291.506 679.526 294.319 675.359L295.178 687ZM350.784 676.844C346.253 676.844 342.451 675.958 339.378 674.188C336.357 672.365 333.935 669.995 332.112 667.078C330.237 664.214 328.883 660.984 328.05 657.391C327.269 653.745 326.878 650.073 326.878 646.375V643.094C326.878 639.448 327.269 635.828 328.05 632.234C328.883 628.641 330.237 625.385 332.112 622.469C333.987 619.604 336.435 617.286 339.456 615.516C342.529 613.693 346.305 612.781 350.784 612.781C353.701 612.781 356.409 613.276 358.909 614.266C361.461 615.255 363.649 616.609 365.472 618.328C367.295 620.047 368.727 622.052 369.769 624.344C370.862 626.583 371.435 628.979 371.487 631.531H385.159C385.159 627.26 384.3 623.25 382.581 619.5C380.862 615.75 378.493 612.495 375.472 609.734C372.399 607.026 368.753 604.891 364.534 603.328C360.368 601.714 355.784 600.906 350.784 600.906C344.378 600.906 338.779 602.052 333.987 604.344C329.196 606.635 325.211 609.708 322.034 613.562C318.805 617.469 316.383 621.974 314.769 627.078C313.154 632.182 312.347 637.521 312.347 643.094V646.375C312.347 652 313.154 657.365 314.769 662.469C316.383 667.521 318.805 671.974 322.034 675.828C325.211 679.734 329.196 682.833 333.987 685.125C338.779 687.417 344.378 688.562 350.784 688.562C355.264 688.562 359.56 687.807 363.675 686.297C367.79 684.734 371.435 682.651 374.612 680.047C377.79 677.495 380.316 674.526 382.191 671.141C384.118 667.703 385.107 664.109 385.159 660.359H371.487C371.435 662.703 370.81 664.891 369.612 666.922C368.467 668.901 366.93 670.62 365.003 672.078C363.076 673.589 360.862 674.76 358.362 675.594C355.915 676.427 353.389 676.844 350.784 676.844ZM404.516 615.047V567H390.062V687H404.516V625.594C405.557 623.927 406.729 622.417 408.031 621.062C409.385 619.656 410.844 618.432 412.406 617.391C414.385 616.036 416.547 614.995 418.891 614.266C421.234 613.536 423.708 613.172 426.312 613.172C429.49 613.12 432.302 613.562 434.75 614.5C437.198 615.385 439.229 616.74 440.844 618.562C442.354 620.229 443.5 622.339 444.281 624.891C445.062 627.391 445.453 630.307 445.453 633.641V687H459.906V633.797C459.906 628.12 459.203 623.224 457.797 619.109C456.443 614.943 454.49 611.505 451.938 608.797C449.385 606.089 446.286 604.109 442.641 602.859C439.047 601.557 435.036 600.906 430.609 600.906C427.224 600.958 424.021 601.453 421 602.391C418.031 603.328 415.297 604.708 412.797 606.531C411.234 607.625 409.75 608.901 408.344 610.359C406.938 611.766 405.661 613.328 404.516 615.047ZM502.7 688.562C510.929 688.562 517.83 686.922 523.403 683.641C529.028 680.307 533.247 676.505 536.059 672.234L527.231 665.359C524.575 668.797 521.242 671.557 517.231 673.641C513.221 675.724 508.638 676.766 503.481 676.766C499.575 676.766 496.007 676.036 492.778 674.578C489.549 673.12 486.789 671.115 484.497 668.562C482.257 666.167 480.486 663.406 479.184 660.281C477.934 657.156 477.127 653.536 476.763 649.422V648.875H537.153V642.391C537.153 636.505 536.398 631.036 534.888 625.984C533.429 620.932 531.19 616.531 528.169 612.781C525.148 609.083 521.346 606.193 516.763 604.109C512.231 601.974 506.919 600.906 500.825 600.906C495.981 600.906 491.242 601.896 486.606 603.875C482.023 605.854 477.934 608.693 474.341 612.391C470.695 616.141 467.778 620.724 465.591 626.141C463.403 631.505 462.309 637.599 462.309 644.422V647.703C462.309 653.589 463.299 659.031 465.278 664.031C467.257 669.031 470.018 673.354 473.559 677C477.101 680.646 481.346 683.484 486.294 685.516C491.294 687.547 496.763 688.562 502.7 688.562ZM500.825 612.781C504.523 612.781 507.7 613.458 510.356 614.812C513.065 616.167 515.304 617.938 517.075 620.125C518.846 622.312 520.226 624.917 521.216 627.938C522.205 630.906 522.7 633.693 522.7 636.297V637H477.231C477.804 633.094 478.794 629.656 480.2 626.688C481.658 623.667 483.429 621.115 485.513 619.031C487.596 617 489.94 615.464 492.544 614.422C495.148 613.328 497.908 612.781 500.825 612.781ZM615.866 719.5H630.319V678.875C631.36 680.021 632.48 681.089 633.678 682.078C634.876 683.016 636.152 683.875 637.506 684.656C639.746 685.906 642.246 686.87 645.006 687.547C647.819 688.224 650.84 688.562 654.069 688.562C659.381 688.562 664.095 687.469 668.209 685.281C672.376 683.094 675.866 680.073 678.678 676.219C681.491 672.365 683.626 667.833 685.084 662.625C686.543 657.365 687.272 651.714 687.272 645.672V644.031C687.272 637.729 686.543 631.948 685.084 626.688C683.626 621.375 681.491 616.818 678.678 613.016C675.866 609.214 672.376 606.245 668.209 604.109C664.043 601.974 659.251 600.906 653.834 600.906C650.761 600.906 647.871 601.245 645.162 601.922C642.506 602.547 640.084 603.484 637.897 604.734C636.334 605.568 634.876 606.583 633.522 607.781C632.168 608.927 630.918 610.229 629.772 611.688L629.069 602.469H615.866V719.5ZM672.819 644.031V645.672C672.819 649.786 672.35 653.719 671.412 657.469C670.527 661.219 669.147 664.526 667.272 667.391C665.397 670.255 663.001 672.547 660.084 674.266C657.168 675.932 653.704 676.766 649.694 676.766C647.194 676.766 644.902 676.453 642.819 675.828C640.787 675.203 638.939 674.344 637.272 673.25C635.814 672.312 634.511 671.167 633.366 669.812C632.22 668.458 631.204 667 630.319 665.438V624.734C631.308 622.964 632.454 621.349 633.756 619.891C635.058 618.432 636.543 617.208 638.209 616.219C639.72 615.229 641.412 614.474 643.287 613.953C645.215 613.432 647.298 613.172 649.537 613.172C653.6 613.172 657.09 614.005 660.006 615.672C662.923 617.339 665.345 619.578 667.272 622.391C669.147 625.255 670.527 628.562 671.412 632.312C672.35 636.01 672.819 639.917 672.819 644.031ZM687.175 643.953V645.672C687.175 651.766 688.06 657.417 689.831 662.625C691.602 667.833 694.154 672.365 697.487 676.219C700.769 680.073 704.779 683.094 709.519 685.281C714.31 687.469 719.701 688.562 725.691 688.562C731.628 688.562 736.967 687.469 741.706 685.281C746.446 683.094 750.482 680.073 753.816 676.219C757.097 672.365 759.623 667.833 761.394 662.625C763.165 657.417 764.05 651.766 764.05 645.672V643.953C764.05 637.859 763.165 632.208 761.394 627C759.623 621.74 757.097 617.182 753.816 613.328C750.482 609.474 746.42 606.453 741.628 604.266C736.889 602.026 731.524 600.906 725.534 600.906C719.597 600.906 714.258 602.026 709.519 604.266C704.779 606.453 700.769 609.474 697.487 613.328C694.154 617.182 691.602 621.74 689.831 627C688.06 632.208 687.175 637.859 687.175 643.953ZM701.628 645.672V643.953C701.628 639.839 702.123 635.906 703.112 632.156C704.102 628.354 705.612 625.021 707.644 622.156C709.623 619.292 712.097 617.026 715.066 615.359C718.034 613.641 721.524 612.781 725.534 612.781C729.545 612.781 733.034 613.641 736.003 615.359C739.024 617.026 741.55 619.292 743.581 622.156C745.56 625.021 747.045 628.354 748.034 632.156C749.076 635.906 749.597 639.839 749.597 643.953V645.672C749.597 649.839 749.102 653.823 748.112 657.625C747.123 661.375 745.639 664.682 743.659 667.547C741.628 670.411 739.102 672.677 736.081 674.344C733.112 676.01 729.649 676.844 725.691 676.844C721.68 676.844 718.165 676.01 715.144 674.344C712.123 672.677 709.623 670.411 707.644 667.547C705.612 664.682 704.102 661.375 703.112 657.625C702.123 653.823 701.628 649.839 701.628 645.672ZM822.234 687H835.359V602.469H820.828V663.094C820.047 664.917 819.057 666.609 817.859 668.172C816.714 669.682 815.359 670.984 813.797 672.078C811.922 673.432 809.708 674.5 807.156 675.281C804.604 676.01 801.714 676.375 798.484 676.375C795.724 676.375 793.276 676.01 791.141 675.281C789.057 674.552 787.286 673.276 785.828 671.453C784.37 669.682 783.276 667.286 782.547 664.266C781.818 661.245 781.453 657.443 781.453 652.859V602.469H767V652.703C767 659.005 767.677 664.422 769.031 668.953C770.438 673.432 772.417 677.13 774.969 680.047C777.521 682.964 780.594 685.125 784.188 686.531C787.781 687.885 791.792 688.562 796.219 688.562C801.74 688.562 806.609 687.417 810.828 685.125C815.047 682.781 818.562 679.526 821.375 675.359L822.234 687ZM897.216 600.906C891.07 600.906 885.575 602.26 880.731 604.969C875.94 607.625 871.825 611.271 868.388 615.906L868.309 613.797L867.684 602.469H853.934V687H868.466V632.781C869.403 630.177 870.575 627.833 871.981 625.75C873.44 623.615 875.132 621.818 877.059 620.359C879.195 618.693 881.695 617.443 884.559 616.609C887.424 615.724 890.627 615.281 894.169 615.281C896.929 615.281 899.559 615.438 902.059 615.75C904.611 616.01 907.294 616.453 910.106 617.078L912.059 602.938C910.601 602.312 908.414 601.818 905.497 601.453C902.632 601.089 899.872 600.906 897.216 600.906ZM957.353 718.094V573.25H945.713V718.094H957.353ZM53.8281 868.094V723.25H42.1875V868.094H53.8281ZM124.903 826.844C120.372 826.844 116.57 825.958 113.497 824.188C110.476 822.365 108.054 819.995 106.231 817.078C104.356 814.214 103.002 810.984 102.169 807.391C101.387 803.745 100.997 800.073 100.997 796.375V793.094C100.997 789.448 101.387 785.828 102.169 782.234C103.002 778.641 104.356 775.385 106.231 772.469C108.106 769.604 110.554 767.286 113.575 765.516C116.648 763.693 120.424 762.781 124.903 762.781C127.82 762.781 130.528 763.276 133.028 764.266C135.58 765.255 137.768 766.609 139.591 768.328C141.414 770.047 142.846 772.052 143.887 774.344C144.981 776.583 145.554 778.979 145.606 781.531H159.278C159.278 777.26 158.419 773.25 156.7 769.5C154.981 765.75 152.611 762.495 149.591 759.734C146.518 757.026 142.872 754.891 138.653 753.328C134.486 751.714 129.903 750.906 124.903 750.906C118.497 750.906 112.898 752.052 108.106 754.344C103.315 756.635 99.3302 759.708 96.1531 763.562C92.924 767.469 90.5021 771.974 88.8875 777.078C87.2729 782.182 86.4656 787.521 86.4656 793.094V796.375C86.4656 802 87.2729 807.365 88.8875 812.469C90.5021 817.521 92.924 821.974 96.1531 825.828C99.3302 829.734 103.315 832.833 108.106 835.125C112.898 837.417 118.497 838.562 124.903 838.562C129.382 838.562 133.679 837.807 137.794 836.297C141.908 834.734 145.554 832.651 148.731 830.047C151.908 827.495 154.434 824.526 156.309 821.141C158.236 817.703 159.226 814.109 159.278 810.359H145.606C145.554 812.703 144.929 814.891 143.731 816.922C142.585 818.901 141.049 820.62 139.122 822.078C137.195 823.589 134.981 824.76 132.481 825.594C130.033 826.427 127.507 826.844 124.903 826.844ZM160.119 793.953V795.672C160.119 801.766 161.004 807.417 162.775 812.625C164.546 817.833 167.098 822.365 170.431 826.219C173.712 830.073 177.723 833.094 182.462 835.281C187.254 837.469 192.645 838.562 198.634 838.562C204.572 838.562 209.91 837.469 214.65 835.281C219.39 833.094 223.426 830.073 226.759 826.219C230.041 822.365 232.567 817.833 234.337 812.625C236.108 807.417 236.994 801.766 236.994 795.672V793.953C236.994 787.859 236.108 782.208 234.337 777C232.567 771.74 230.041 767.182 226.759 763.328C223.426 759.474 219.364 756.453 214.572 754.266C209.832 752.026 204.468 750.906 198.478 750.906C192.541 750.906 187.202 752.026 182.462 754.266C177.723 756.453 173.712 759.474 170.431 763.328C167.098 767.182 164.546 771.74 162.775 777C161.004 782.208 160.119 787.859 160.119 793.953ZM174.572 795.672V793.953C174.572 789.839 175.067 785.906 176.056 782.156C177.046 778.354 178.556 775.021 180.587 772.156C182.567 769.292 185.041 767.026 188.009 765.359C190.978 763.641 194.468 762.781 198.478 762.781C202.489 762.781 205.978 763.641 208.947 765.359C211.968 767.026 214.494 769.292 216.525 772.156C218.504 775.021 219.989 778.354 220.978 782.156C222.02 785.906 222.541 789.839 222.541 793.953V795.672C222.541 799.839 222.046 803.823 221.056 807.625C220.067 811.375 218.582 814.682 216.603 817.547C214.572 820.411 212.046 822.677 209.025 824.344C206.056 826.01 202.593 826.844 198.634 826.844C194.624 826.844 191.108 826.01 188.087 824.344C185.067 822.677 182.567 820.411 180.587 817.547C178.556 814.682 177.046 811.375 176.056 807.625C175.067 803.823 174.572 799.839 174.572 795.672ZM246.116 752.469H233.147V837H246.897V769.734C247.209 768.901 247.6 768.12 248.069 767.391C248.59 766.661 249.189 766.01 249.866 765.438C250.751 764.708 251.819 764.161 253.069 763.797C254.371 763.38 255.881 763.172 257.6 763.172C259.163 763.172 260.517 763.38 261.663 763.797C262.86 764.161 263.85 764.76 264.631 765.594C265.465 766.479 266.064 767.599 266.428 768.953C266.845 770.307 267.053 771.87 267.053 773.641V837H280.803V773.719C280.803 773.406 280.803 773.146 280.803 772.938C280.803 772.677 280.803 772.417 280.803 772.156C280.959 770.854 281.272 769.682 281.741 768.641C282.209 767.547 282.86 766.583 283.694 765.75C284.527 764.969 285.569 764.344 286.819 763.875C288.069 763.406 289.553 763.172 291.272 763.172C292.886 763.172 294.293 763.38 295.491 763.797C296.741 764.214 297.782 764.839 298.616 765.672C299.397 766.557 299.996 767.677 300.413 769.031C300.829 770.385 301.038 771.948 301.038 773.719V837H314.788V773.875C314.788 769.812 314.319 766.297 313.381 763.328C312.444 760.307 311.09 757.859 309.319 755.984C307.704 754.318 305.725 753.068 303.381 752.234C301.038 751.349 298.407 750.906 295.491 750.906C293.355 750.958 291.376 751.245 289.553 751.766C287.782 752.286 286.168 752.99 284.709 753.875C283.564 754.656 282.496 755.568 281.506 756.609C280.517 757.651 279.657 758.771 278.928 759.969C278.355 758.667 277.652 757.495 276.819 756.453C276.038 755.411 275.152 754.526 274.163 753.797C272.808 752.859 271.22 752.156 269.397 751.688C267.626 751.167 265.621 750.906 263.381 750.906C259.423 750.958 256.038 751.818 253.225 753.484C250.465 755.151 248.225 757.469 246.506 760.438L246.116 752.469ZM321.409 752.469H308.441V837H322.191V769.734C322.503 768.901 322.894 768.12 323.362 767.391C323.883 766.661 324.482 766.01 325.159 765.438C326.045 764.708 327.112 764.161 328.362 763.797C329.665 763.38 331.175 763.172 332.894 763.172C334.456 763.172 335.81 763.38 336.956 763.797C338.154 764.161 339.144 764.76 339.925 765.594C340.758 766.479 341.357 767.599 341.722 768.953C342.139 770.307 342.347 771.87 342.347 773.641V837H356.097V773.719C356.097 773.406 356.097 773.146 356.097 772.938C356.097 772.677 356.097 772.417 356.097 772.156C356.253 770.854 356.566 769.682 357.034 768.641C357.503 767.547 358.154 766.583 358.987 765.75C359.821 764.969 360.862 764.344 362.112 763.875C363.362 763.406 364.847 763.172 366.566 763.172C368.18 763.172 369.586 763.38 370.784 763.797C372.034 764.214 373.076 764.839 373.909 765.672C374.691 766.557 375.29 767.677 375.706 769.031C376.123 770.385 376.331 771.948 376.331 773.719V837H390.081V773.875C390.081 769.812 389.612 766.297 388.675 763.328C387.737 760.307 386.383 757.859 384.612 755.984C382.998 754.318 381.019 753.068 378.675 752.234C376.331 751.349 373.701 750.906 370.784 750.906C368.649 750.958 366.67 751.245 364.847 751.766C363.076 752.286 361.461 752.99 360.003 753.875C358.857 754.656 357.79 755.568 356.8 756.609C355.81 757.651 354.951 758.771 354.222 759.969C353.649 758.667 352.946 757.495 352.112 756.453C351.331 755.411 350.446 754.526 349.456 753.797C348.102 752.859 346.514 752.156 344.691 751.688C342.92 751.167 340.915 750.906 338.675 750.906C334.717 750.958 331.331 751.818 328.519 753.484C325.758 755.151 323.519 757.469 321.8 760.438L321.409 752.469ZM427.406 838.562C435.635 838.562 442.536 836.922 448.109 833.641C453.734 830.307 457.953 826.505 460.766 822.234L451.938 815.359C449.281 818.797 445.948 821.557 441.938 823.641C437.927 825.724 433.344 826.766 428.188 826.766C424.281 826.766 420.714 826.036 417.484 824.578C414.255 823.12 411.495 821.115 409.203 818.562C406.964 816.167 405.193 813.406 403.891 810.281C402.641 807.156 401.833 803.536 401.469 799.422V798.875H461.859V792.391C461.859 786.505 461.104 781.036 459.594 775.984C458.135 770.932 455.896 766.531 452.875 762.781C449.854 759.083 446.052 756.193 441.469 754.109C436.938 751.974 431.625 750.906 425.531 750.906C420.688 750.906 415.948 751.896 411.312 753.875C406.729 755.854 402.641 758.693 399.047 762.391C395.401 766.141 392.484 770.724 390.297 776.141C388.109 781.505 387.016 787.599 387.016 794.422V797.703C387.016 803.589 388.005 809.031 389.984 814.031C391.964 819.031 394.724 823.354 398.266 827C401.807 830.646 406.052 833.484 411 835.516C416 837.547 421.469 838.562 427.406 838.562ZM425.531 762.781C429.229 762.781 432.406 763.458 435.062 764.812C437.771 766.167 440.01 767.938 441.781 770.125C443.552 772.312 444.932 774.917 445.922 777.938C446.911 780.906 447.406 783.693 447.406 786.297V787H401.938C402.51 783.094 403.5 779.656 404.906 776.688C406.365 773.667 408.135 771.115 410.219 769.031C412.302 767 414.646 765.464 417.25 764.422C419.854 763.328 422.615 762.781 425.531 762.781ZM465.356 837H479.809V776.375C480.799 774.552 481.945 772.885 483.247 771.375C484.601 769.865 486.059 768.536 487.622 767.391C489.549 766.089 491.658 765.073 493.95 764.344C496.242 763.562 498.716 763.172 501.372 763.172C504.445 763.172 507.153 763.536 509.497 764.266C511.893 764.995 513.924 766.167 515.591 767.781C517.205 769.396 518.429 771.505 519.263 774.109C520.096 776.714 520.513 779.891 520.513 783.641V837H534.966V783.328C534.966 777.703 534.263 772.859 532.856 768.797C531.502 764.682 529.549 761.297 526.997 758.641C524.445 755.984 521.346 754.031 517.7 752.781C514.106 751.531 510.096 750.906 505.669 750.906C502.388 750.958 499.263 751.453 496.294 752.391C493.377 753.276 490.669 754.552 488.169 756.219C486.502 757.312 484.914 758.615 483.403 760.125C481.945 761.583 480.591 763.198 479.341 764.969L478.325 752.469H465.356V837ZM576.666 826.844C572.134 826.844 568.332 825.958 565.259 824.188C562.239 822.365 559.817 819.995 557.994 817.078C556.119 814.214 554.765 810.984 553.931 807.391C553.15 803.745 552.759 800.073 552.759 796.375V793.094C552.759 789.448 553.15 785.828 553.931 782.234C554.765 778.641 556.119 775.385 557.994 772.469C559.869 769.604 562.317 767.286 565.338 765.516C568.41 763.693 572.186 762.781 576.666 762.781C579.582 762.781 582.291 763.276 584.791 764.266C587.343 765.255 589.53 766.609 591.353 768.328C593.176 770.047 594.608 772.052 595.65 774.344C596.744 776.583 597.317 778.979 597.369 781.531H611.041C611.041 777.26 610.181 773.25 608.463 769.5C606.744 765.75 604.374 762.495 601.353 759.734C598.28 757.026 594.634 754.891 590.416 753.328C586.249 751.714 581.666 750.906 576.666 750.906C570.259 750.906 564.66 752.052 559.869 754.344C555.077 756.635 551.093 759.708 547.916 763.562C544.686 767.469 542.265 771.974 540.65 777.078C539.035 782.182 538.228 787.521 538.228 793.094V796.375C538.228 802 539.035 807.365 540.65 812.469C542.265 817.521 544.686 821.974 547.916 825.828C551.093 829.734 555.077 832.833 559.869 835.125C564.66 837.417 570.259 838.562 576.666 838.562C581.145 838.562 585.442 837.807 589.556 836.297C593.671 834.734 597.317 832.651 600.494 830.047C603.671 827.495 606.197 824.526 608.072 821.141C609.999 817.703 610.989 814.109 611.041 810.359H597.369C597.317 812.703 596.692 814.891 595.494 816.922C594.348 818.901 592.811 820.62 590.884 822.078C588.957 823.589 586.744 824.76 584.244 825.594C581.796 826.427 579.27 826.844 576.666 826.844ZM653.287 838.562C661.517 838.562 668.418 836.922 673.991 833.641C679.616 830.307 683.834 826.505 686.647 822.234L677.819 815.359C675.162 818.797 671.829 821.557 667.819 823.641C663.808 825.724 659.225 826.766 654.069 826.766C650.162 826.766 646.595 826.036 643.366 824.578C640.136 823.12 637.376 821.115 635.084 818.562C632.845 816.167 631.074 813.406 629.772 810.281C628.522 807.156 627.715 803.536 627.35 799.422V798.875H687.741V792.391C687.741 786.505 686.985 781.036 685.475 775.984C684.017 770.932 681.777 766.531 678.756 762.781C675.735 759.083 671.933 756.193 667.35 754.109C662.819 751.974 657.506 750.906 651.412 750.906C646.569 750.906 641.829 751.896 637.194 753.875C632.61 755.854 628.522 758.693 624.928 762.391C621.282 766.141 618.366 770.724 616.178 776.141C613.991 781.505 612.897 787.599 612.897 794.422V797.703C612.897 803.589 613.886 809.031 615.866 814.031C617.845 819.031 620.605 823.354 624.147 827C627.689 830.646 631.933 833.484 636.881 835.516C641.881 837.547 647.35 838.562 653.287 838.562ZM651.412 762.781C655.11 762.781 658.287 763.458 660.944 764.812C663.652 766.167 665.892 767.938 667.662 770.125C669.433 772.312 670.814 774.917 671.803 777.938C672.793 780.906 673.287 783.693 673.287 786.297V787H627.819C628.392 783.094 629.381 779.656 630.787 776.688C632.246 773.667 634.017 771.115 636.1 769.031C638.183 767 640.527 765.464 643.131 764.422C645.735 763.328 648.496 762.781 651.412 762.781ZM746.628 750.906C740.482 750.906 734.987 752.26 730.144 754.969C725.352 757.625 721.237 761.271 717.8 765.906L717.722 763.797L717.097 752.469H703.347V837H717.878V782.781C718.816 780.177 719.987 777.833 721.394 775.75C722.852 773.615 724.545 771.818 726.472 770.359C728.607 768.693 731.107 767.443 733.972 766.609C736.836 765.724 740.04 765.281 743.581 765.281C746.342 765.281 748.972 765.438 751.472 765.75C754.024 766.01 756.706 766.453 759.519 767.078L761.472 752.938C760.014 752.312 757.826 751.818 754.909 751.453C752.045 751.089 749.284 750.906 746.628 750.906ZM791.688 827.625C791.688 830.646 792.625 833.224 794.5 835.359C796.427 837.443 799.266 838.484 803.016 838.484C806.714 838.484 809.552 837.443 811.531 835.359C813.51 833.276 814.5 830.698 814.5 827.625C814.5 824.5 813.51 821.87 811.531 819.734C809.604 817.547 806.766 816.453 803.016 816.453C799.214 816.453 796.375 817.547 794.5 819.734C792.625 821.922 791.688 824.552 791.688 827.625ZM866.981 827.625C866.981 830.646 867.919 833.224 869.794 835.359C871.721 837.443 874.559 838.484 878.309 838.484C882.007 838.484 884.846 837.443 886.825 835.359C888.804 833.276 889.794 830.698 889.794 827.625C889.794 824.5 888.804 821.87 886.825 819.734C884.898 817.547 882.059 816.453 878.309 816.453C874.507 816.453 871.669 817.547 869.794 819.734C867.919 821.922 866.981 824.552 866.981 827.625ZM957.353 868.094V723.25H945.713V868.094H957.353ZM55.4688 925.984V892.781H41.0156V925.984H9.29688V940.359H41.0156V975.594H55.4688V940.359H87.2656V925.984H55.4688ZM152.091 943.172V931.297H92.325V943.172H152.091ZM227.384 943.172V931.297H167.619V943.172H227.384ZM302.678 943.172V931.297H242.913V943.172H302.678ZM377.972 943.172V931.297H318.206V943.172H377.972ZM453.266 943.172V931.297H393.5V943.172H453.266ZM528.559 943.172V931.297H468.794V943.172H528.559ZM603.853 943.172V931.297H544.088V943.172H603.853ZM679.147 943.172V931.297H619.381V943.172H679.147ZM754.441 943.172V931.297H694.675V943.172H754.441ZM829.734 943.172V931.297H769.969V943.172H829.734ZM905.028 943.172V931.297H845.263V943.172H905.028ZM958.994 925.984V892.781H944.541V925.984H912.822V940.359H944.541V975.594H958.994V940.359H990.791V925.984H958.994Z" fill="white"/>
</g>
<defs>
<clipPath id="clip0_433_286">
<rect width="1000" height="1000" fill="white"/>
</clipPath>
</defs>
</svg>
