<svg width="1000" height="1000" viewBox="0 0 1000 1000" fill="none" xmlns="http://www.w3.org/2000/svg">
<g clip-path="url(#clip0_433_308)">
<path d="M234.337 98.7969V87H162.697V98.7969H234.337ZM309.631 98.7969V87H237.991V98.7969H309.631ZM384.925 98.7969V87H313.284V98.7969H384.925ZM460.219 98.7969V87H388.578V98.7969H460.219ZM535.513 98.7969V87H463.872V98.7969H535.513ZM204.416 268.094V123.25H192.775V268.094H204.416ZM258.538 246.766L305.959 123.25H293.069L245.569 246.766H258.538ZM505.591 268.094V123.25H493.95V268.094H505.591ZM204.416 418.094V273.25H192.775V418.094H204.416ZM542.309 325.359C542.518 317.495 541.789 310.359 540.122 303.953C538.455 297.495 535.955 291.974 532.622 287.391C529.236 282.807 525.07 279.292 520.122 276.844C515.174 274.344 509.523 273.094 503.169 273.094C496.658 273.094 490.695 274.578 485.278 277.547C479.914 280.516 475.252 284.604 471.294 289.812C467.127 295.281 463.794 301.766 461.294 309.266C458.846 316.766 457.466 324.682 457.153 333.016C456.893 340.984 457.518 348.328 459.028 355.047C460.591 361.714 463.117 367.469 466.606 372.312C470.044 377.156 474.497 380.932 479.966 383.641C485.486 386.297 492.075 387.625 499.731 387.625C501.398 387.625 503.169 387.495 505.044 387.234C506.919 387.026 508.768 386.661 510.591 386.141C512.414 385.672 514.158 385.073 515.825 384.344C517.492 383.615 518.976 382.755 520.278 381.766L517.778 372.625C516.632 373.406 515.356 374.109 513.95 374.734C512.544 375.359 511.059 375.88 509.497 376.297C507.934 376.766 506.346 377.13 504.731 377.391C503.117 377.599 501.528 377.703 499.966 377.703C494.132 377.703 489.054 376.714 484.731 374.734C480.46 372.703 476.945 369.76 474.184 365.906C471.424 362.104 469.419 357.443 468.169 351.922C466.919 346.401 466.424 340.099 466.684 333.016C466.893 325.464 467.96 318.536 469.888 312.234C471.815 305.88 474.523 300.464 478.013 295.984C481.294 291.818 484.992 288.615 489.106 286.375C493.273 284.083 497.882 282.938 502.934 282.938C507.934 282.938 512.388 283.901 516.294 285.828C520.2 287.755 523.507 290.542 526.216 294.188C528.872 297.833 530.851 302.286 532.153 307.547C533.455 312.807 534.002 318.745 533.794 325.359C533.742 329.161 533.455 332.755 532.934 336.141C532.414 339.526 531.658 342.469 530.669 344.969C529.679 347.521 528.429 349.552 526.919 351.062C525.46 352.521 523.768 353.25 521.841 353.25C521.007 353.25 520.226 353.12 519.497 352.859C518.768 352.599 518.169 352.078 517.7 351.297C517.179 350.568 516.789 349.552 516.528 348.25C516.268 346.896 516.216 345.151 516.372 343.016L519.809 303.641C518.455 301.766 516.632 300.151 514.341 298.797C512.049 297.391 509.158 296.688 505.669 296.688C501.971 296.688 498.585 297.573 495.513 299.344C492.44 301.062 489.757 303.536 487.466 306.766C485.122 310.047 483.221 314.031 481.763 318.719C480.304 323.354 479.341 328.562 478.872 334.344C478.559 338.406 478.611 342.13 479.028 345.516C479.497 348.901 480.33 351.818 481.528 354.266C482.674 356.714 484.184 358.615 486.059 359.969C487.934 361.323 490.148 362 492.7 362C494.471 362 496.164 361.74 497.778 361.219C499.393 360.698 500.903 359.969 502.309 359.031C503.455 358.198 504.523 357.234 505.513 356.141C506.554 355.047 507.492 353.849 508.325 352.547C508.69 353.797 509.158 354.943 509.731 355.984C510.304 356.974 510.981 357.859 511.763 358.641C512.856 359.734 514.158 360.568 515.669 361.141C517.179 361.714 518.872 362 520.747 362C524.601 362 527.856 360.88 530.513 358.641C533.169 356.401 535.356 353.51 537.075 349.969C538.742 346.427 539.992 342.495 540.825 338.172C541.658 333.797 542.153 329.526 542.309 325.359ZM488.481 334.344C488.898 330.073 489.523 326.219 490.356 322.781C491.242 319.292 492.388 316.323 493.794 313.875C495.2 311.479 496.919 309.63 498.95 308.328C501.033 306.974 503.455 306.297 506.216 306.297C506.997 306.297 507.752 306.375 508.481 306.531C509.263 306.688 510.018 306.948 510.747 307.312L507.778 341.297L507.7 342.078C507.127 343.328 506.502 344.448 505.825 345.438C505.148 346.375 504.445 347.208 503.716 347.938C502.518 349.083 501.19 349.917 499.731 350.438C498.325 350.958 496.841 351.219 495.278 351.219C494.028 351.219 492.934 350.854 491.997 350.125C491.111 349.344 490.382 348.224 489.809 346.766C489.236 345.359 488.846 343.615 488.638 341.531C488.429 339.396 488.377 337 488.481 334.344ZM204.416 568.094V423.25H192.775V568.094H204.416ZM409.125 546.766L456.547 423.25H443.656L396.156 546.766H409.125ZM505.591 568.094V423.25H493.95V568.094H505.591ZM545.103 423.25L592.603 546.766H605.65L558.15 423.25H545.103ZM204.416 718.094V573.25H192.775V718.094H204.416ZM409.125 696.766L456.547 573.25H443.656L396.156 696.766H409.125ZM545.103 573.25L592.603 696.766H605.65L558.15 573.25H545.103ZM204.416 868.094V723.25H192.775V868.094H204.416ZM313.069 822.078L312.834 780.359H275.959V792.547H299.084L298.928 818.094C297.73 819.812 296.246 821.219 294.475 822.312C292.704 823.354 290.803 824.188 288.772 824.812C286.741 825.438 284.631 825.854 282.444 826.062C280.308 826.271 278.251 826.349 276.272 826.297C272.834 826.245 269.761 825.646 267.053 824.5C264.345 823.302 261.975 821.714 259.944 819.734C257.86 817.755 256.09 815.464 254.631 812.859C253.173 810.255 251.975 807.495 251.038 804.578C250.1 801.661 249.397 798.693 248.928 795.672C248.511 792.599 248.277 789.63 248.225 786.766V773.406C248.225 770.594 248.407 767.677 248.772 764.656C249.136 761.635 249.735 758.667 250.569 755.75C251.402 752.833 252.47 750.073 253.772 747.469C255.074 744.812 256.715 742.495 258.694 740.516C260.673 738.536 262.991 736.974 265.647 735.828C268.303 734.63 271.35 734.031 274.788 734.031C278.381 734.031 281.532 734.604 284.241 735.75C286.949 736.844 289.293 738.38 291.272 740.359C293.199 742.339 294.761 744.734 295.959 747.547C297.157 750.307 298.043 753.328 298.616 756.609H312.913C312.444 751.297 311.194 746.505 309.163 742.234C307.131 737.911 304.449 734.214 301.116 731.141C297.782 728.12 293.876 725.802 289.397 724.188C284.918 722.521 280.022 721.688 274.709 721.688C269.918 721.688 265.595 722.391 261.741 723.797C257.886 725.203 254.449 727.104 251.428 729.5C248.355 731.948 245.725 734.839 243.538 738.172C241.35 741.453 239.527 745.021 238.069 748.875C236.61 752.729 235.517 756.766 234.788 760.984C234.11 765.151 233.746 769.344 233.694 773.562V786.766C233.746 791.036 234.163 795.281 234.944 799.5C235.777 803.667 237.001 807.651 238.616 811.453C240.178 815.307 242.131 818.875 244.475 822.156C246.819 825.438 249.553 828.276 252.678 830.672C255.803 833.12 259.319 835.047 263.225 836.453C267.183 837.807 271.506 838.51 276.194 838.562C280.829 838.615 285.256 838.094 289.475 837C293.694 835.958 297.626 834.344 301.272 832.156C303.407 830.906 305.465 829.448 307.444 827.781C309.423 826.062 311.298 824.161 313.069 822.078ZM370.316 837H385.394V835.75C384.456 833.406 383.727 830.672 383.206 827.547C382.685 824.37 382.425 821.375 382.425 818.562V779.266C382.425 774.526 381.566 770.385 379.847 766.844C378.128 763.302 375.784 760.333 372.816 757.938C369.795 755.594 366.227 753.849 362.112 752.703C357.998 751.505 353.545 750.906 348.753 750.906C343.493 750.906 338.779 751.635 334.612 753.094C330.498 754.552 327.008 756.453 324.144 758.797C321.227 761.193 318.987 763.875 317.425 766.844C315.915 769.812 315.133 772.833 315.081 775.906H329.612C329.612 774.135 330.029 772.443 330.862 770.828C331.748 769.161 332.972 767.729 334.534 766.531C336.097 765.333 337.998 764.37 340.237 763.641C342.529 762.911 345.107 762.547 347.972 762.547C351.045 762.547 353.805 762.938 356.253 763.719C358.753 764.5 360.862 765.594 362.581 767C364.3 768.458 365.628 770.203 366.566 772.234C367.503 774.266 367.972 776.557 367.972 779.109V785.75H352.191C346.305 785.75 340.967 786.323 336.175 787.469C331.435 788.615 327.373 790.333 323.987 792.625C320.602 794.969 317.972 797.885 316.097 801.375C314.274 804.865 313.362 808.927 313.362 813.562C313.362 817.104 314.04 820.411 315.394 823.484C316.8 826.505 318.779 829.109 321.331 831.297C323.831 833.536 326.878 835.307 330.472 836.609C334.118 837.911 338.18 838.562 342.659 838.562C345.42 838.562 348.024 838.276 350.472 837.703C352.92 837.13 355.237 836.349 357.425 835.359C359.56 834.37 361.514 833.224 363.284 831.922C365.107 830.62 366.748 829.24 368.206 827.781C368.362 829.552 368.597 831.271 368.909 832.938C369.274 834.552 369.743 835.906 370.316 837ZM344.769 825.984C341.956 825.984 339.482 825.62 337.347 824.891C335.211 824.161 333.441 823.146 332.034 821.844C330.628 820.594 329.56 819.083 328.831 817.312C328.154 815.542 327.816 813.615 327.816 811.531C327.816 809.344 328.206 807.391 328.987 805.672C329.821 803.953 331.019 802.469 332.581 801.219C334.769 799.448 337.711 798.146 341.409 797.312C345.159 796.427 349.534 795.984 354.534 795.984H367.972V813.094C367.139 814.76 365.993 816.375 364.534 817.938C363.076 819.448 361.357 820.802 359.378 822C357.347 823.198 355.107 824.161 352.659 824.891C350.211 825.62 347.581 825.984 344.769 825.984ZM396.703 752.469H383.734V837H397.484V769.734C397.797 768.901 398.188 768.12 398.656 767.391C399.177 766.661 399.776 766.01 400.453 765.438C401.339 764.708 402.406 764.161 403.656 763.797C404.958 763.38 406.469 763.172 408.188 763.172C409.75 763.172 411.104 763.38 412.25 763.797C413.448 764.161 414.438 764.76 415.219 765.594C416.052 766.479 416.651 767.599 417.016 768.953C417.432 770.307 417.641 771.87 417.641 773.641V837H431.391V773.719C431.391 773.406 431.391 773.146 431.391 772.938C431.391 772.677 431.391 772.417 431.391 772.156C431.547 770.854 431.859 769.682 432.328 768.641C432.797 767.547 433.448 766.583 434.281 765.75C435.115 764.969 436.156 764.344 437.406 763.875C438.656 763.406 440.141 763.172 441.859 763.172C443.474 763.172 444.88 763.38 446.078 763.797C447.328 764.214 448.37 764.839 449.203 765.672C449.984 766.557 450.583 767.677 451 769.031C451.417 770.385 451.625 771.948 451.625 773.719V837H465.375V773.875C465.375 769.812 464.906 766.297 463.969 763.328C463.031 760.307 461.677 757.859 459.906 755.984C458.292 754.318 456.312 753.068 453.969 752.234C451.625 751.349 448.995 750.906 446.078 750.906C443.943 750.958 441.964 751.245 440.141 751.766C438.37 752.286 436.755 752.99 435.297 753.875C434.151 754.656 433.083 755.568 432.094 756.609C431.104 757.651 430.245 758.771 429.516 759.969C428.943 758.667 428.24 757.495 427.406 756.453C426.625 755.411 425.74 754.526 424.75 753.797C423.396 752.859 421.807 752.156 419.984 751.688C418.214 751.167 416.208 750.906 413.969 750.906C410.01 750.958 406.625 751.818 403.812 753.484C401.052 755.151 398.812 757.469 397.094 760.438L396.703 752.469ZM502.7 838.562C510.929 838.562 517.83 836.922 523.403 833.641C529.028 830.307 533.247 826.505 536.059 822.234L527.231 815.359C524.575 818.797 521.242 821.557 517.231 823.641C513.221 825.724 508.638 826.766 503.481 826.766C499.575 826.766 496.007 826.036 492.778 824.578C489.549 823.12 486.789 821.115 484.497 818.562C482.257 816.167 480.486 813.406 479.184 810.281C477.934 807.156 477.127 803.536 476.763 799.422V798.875H537.153V792.391C537.153 786.505 536.398 781.036 534.888 775.984C533.429 770.932 531.19 766.531 528.169 762.781C525.148 759.083 521.346 756.193 516.763 754.109C512.231 751.974 506.919 750.906 500.825 750.906C495.981 750.906 491.242 751.896 486.606 753.875C482.023 755.854 477.934 758.693 474.341 762.391C470.695 766.141 467.778 770.724 465.591 776.141C463.403 781.505 462.309 787.599 462.309 794.422V797.703C462.309 803.589 463.299 809.031 465.278 814.031C467.257 819.031 470.018 823.354 473.559 827C477.101 830.646 481.346 833.484 486.294 835.516C491.294 837.547 496.763 838.562 502.7 838.562ZM500.825 762.781C504.523 762.781 507.7 763.458 510.356 764.812C513.065 766.167 515.304 767.938 517.075 770.125C518.846 772.312 520.226 774.917 521.216 777.938C522.205 780.906 522.7 783.693 522.7 786.297V787H477.231C477.804 783.094 478.794 779.656 480.2 776.688C481.658 773.667 483.429 771.115 485.513 769.031C487.596 767 489.94 765.464 492.544 764.422C495.148 763.328 497.908 762.781 500.825 762.781ZM689.928 786.688V773.719C689.876 769.656 689.511 765.542 688.834 761.375C688.209 757.208 687.22 753.198 685.866 749.344C684.459 745.49 682.689 741.896 680.553 738.562C678.47 735.177 675.97 732.234 673.053 729.734C670.136 727.234 666.777 725.281 662.975 723.875C659.173 722.417 654.928 721.688 650.241 721.688C645.553 721.688 641.308 722.417 637.506 723.875C633.756 725.281 630.423 727.234 627.506 729.734C624.59 732.286 622.064 735.255 619.928 738.641C617.845 741.974 616.126 745.568 614.772 749.422C613.366 753.276 612.324 757.286 611.647 761.453C611.022 765.568 610.683 769.656 610.631 773.719V786.688C610.683 790.75 611.048 794.839 611.725 798.953C612.402 803.068 613.444 807.052 614.85 810.906C616.204 814.76 617.949 818.38 620.084 821.766C622.22 825.099 624.746 828.016 627.662 830.516C630.579 833.016 633.912 834.995 637.662 836.453C641.465 837.859 645.709 838.562 650.397 838.562C655.084 838.562 659.303 837.859 663.053 836.453C666.855 834.995 670.215 833.016 673.131 830.516C676.048 828.016 678.548 825.099 680.631 821.766C682.767 818.432 684.511 814.839 685.866 810.984C687.22 807.13 688.209 803.146 688.834 799.031C689.511 794.865 689.876 790.75 689.928 786.688ZM675.631 773.562V786.688C675.579 789.396 675.397 792.234 675.084 795.203C674.824 798.172 674.329 801.089 673.6 803.953C672.819 806.87 671.803 809.656 670.553 812.312C669.355 814.917 667.845 817.208 666.022 819.188C664.147 821.219 661.907 822.833 659.303 824.031C656.751 825.229 653.782 825.828 650.397 825.828C647.011 825.828 644.043 825.229 641.491 824.031C638.939 822.833 636.725 821.219 634.85 819.188C632.975 817.208 631.412 814.891 630.162 812.234C628.912 809.578 627.897 806.792 627.116 803.875C626.334 801.01 625.761 798.094 625.397 795.125C625.084 792.156 624.902 789.344 624.85 786.688V773.562C624.902 770.906 625.084 768.12 625.397 765.203C625.761 762.234 626.334 759.292 627.116 756.375C627.845 753.51 628.834 750.776 630.084 748.172C631.334 745.516 632.897 743.172 634.772 741.141C636.647 739.161 638.86 737.573 641.412 736.375C643.965 735.177 646.907 734.578 650.241 734.578C653.626 734.578 656.595 735.177 659.147 736.375C661.699 737.521 663.912 739.083 665.787 741.062C667.662 743.094 669.225 745.438 670.475 748.094C671.725 750.698 672.741 753.432 673.522 756.297C674.251 759.214 674.772 762.156 675.084 765.125C675.397 768.042 675.579 770.854 675.631 773.562ZM720.066 837H731.081L765.534 752.469H750.769L727.097 816.219L725.691 821.453L724.362 816.219L700.144 752.469H685.3L720.066 837ZM803.875 838.562C812.104 838.562 819.005 836.922 824.578 833.641C830.203 830.307 834.422 826.505 837.234 822.234L828.406 815.359C825.75 818.797 822.417 821.557 818.406 823.641C814.396 825.724 809.812 826.766 804.656 826.766C800.75 826.766 797.182 826.036 793.953 824.578C790.724 823.12 787.964 821.115 785.672 818.562C783.432 816.167 781.661 813.406 780.359 810.281C779.109 807.156 778.302 803.536 777.938 799.422V798.875H838.328V792.391C838.328 786.505 837.573 781.036 836.062 775.984C834.604 770.932 832.365 766.531 829.344 762.781C826.323 759.083 822.521 756.193 817.938 754.109C813.406 751.974 808.094 750.906 802 750.906C797.156 750.906 792.417 751.896 787.781 753.875C783.198 755.854 779.109 758.693 775.516 762.391C771.87 766.141 768.953 770.724 766.766 776.141C764.578 781.505 763.484 787.599 763.484 794.422V797.703C763.484 803.589 764.474 809.031 766.453 814.031C768.432 819.031 771.193 823.354 774.734 827C778.276 830.646 782.521 833.484 787.469 835.516C792.469 837.547 797.938 838.562 803.875 838.562ZM802 762.781C805.698 762.781 808.875 763.458 811.531 764.812C814.24 766.167 816.479 767.938 818.25 770.125C820.021 772.312 821.401 774.917 822.391 777.938C823.38 780.906 823.875 783.693 823.875 786.297V787H778.406C778.979 783.094 779.969 779.656 781.375 776.688C782.833 773.667 784.604 771.115 786.688 769.031C788.771 767 791.115 765.464 793.719 764.422C796.323 763.328 799.083 762.781 802 762.781ZM897.216 750.906C891.07 750.906 885.575 752.26 880.731 754.969C875.94 757.625 871.825 761.271 868.388 765.906L868.309 763.797L867.684 752.469H853.934V837H868.466V782.781C869.403 780.177 870.575 777.833 871.981 775.75C873.44 773.615 875.132 771.818 877.059 770.359C879.195 768.693 881.695 767.443 884.559 766.609C887.424 765.724 890.627 765.281 894.169 765.281C896.929 765.281 899.559 765.438 902.059 765.75C904.611 766.01 907.294 766.453 910.106 767.078L912.059 752.938C910.601 752.312 908.414 751.818 905.497 751.453C902.632 751.089 899.872 750.906 897.216 750.906ZM83.2812 926.062V913.484H13.5156V926.062H83.2812ZM83.2812 958.484V945.984H13.5156V958.484H83.2812ZM158.575 926.062V913.484H88.8094V926.062H158.575ZM158.575 958.484V945.984H88.8094V958.484H158.575ZM233.869 926.062V913.484H164.103V926.062H233.869ZM233.869 958.484V945.984H164.103V958.484H233.869ZM309.163 926.062V913.484H239.397V926.062H309.163ZM309.163 958.484V945.984H239.397V958.484H309.163ZM384.456 926.062V913.484H314.691V926.062H384.456ZM384.456 958.484V945.984H314.691V958.484H384.456ZM459.75 926.062V913.484H389.984V926.062H459.75ZM459.75 958.484V945.984H389.984V958.484H459.75ZM535.044 926.062V913.484H465.278V926.062H535.044ZM535.044 958.484V945.984H465.278V958.484H535.044ZM610.338 926.062V913.484H540.572V926.062H610.338ZM610.338 958.484V945.984H540.572V958.484H610.338ZM685.631 926.062V913.484H615.866V926.062H685.631ZM685.631 958.484V945.984H615.866V958.484H685.631ZM760.925 926.062V913.484H691.159V926.062H760.925ZM760.925 958.484V945.984H691.159V958.484H760.925ZM836.219 926.062V913.484H766.453V926.062H836.219ZM836.219 958.484V945.984H766.453V958.484H836.219ZM911.513 926.062V913.484H841.747V926.062H911.513ZM911.513 958.484V945.984H841.747V958.484H911.513ZM986.806 926.062V913.484H917.041V926.062H986.806ZM986.806 958.484V945.984H917.041V958.484H986.806Z" fill="white"/>
</g>
<defs>
<clipPath id="clip0_433_308">
<rect width="1000" height="1000" fill="white"/>
</clipPath>
</defs>
</svg>
