<svg width="1000" height="1000" viewBox="0 0 1000 1000" fill="none" xmlns="http://www.w3.org/2000/svg">
<g clip-path="url(#clip0_433_294)">
<path d="M234.337 98.7969V87H162.697V98.7969H234.337ZM309.631 98.7969V87H237.991V98.7969H309.631ZM384.925 98.7969V87H313.284V98.7969H384.925ZM460.219 98.7969V87H388.578V98.7969H460.219ZM535.513 98.7969V87H463.872V98.7969H535.513ZM204.416 268.094V123.25H192.775V268.094H204.416ZM258.538 246.766L305.959 123.25H293.069L245.569 246.766H258.538ZM204.416 418.094V273.25H192.775V418.094H204.416ZM204.416 568.094V423.25H192.775V568.094H204.416ZM204.416 718.094V573.25H192.775V718.094H204.416ZM204.416 868.094V723.25H192.775V868.094H204.416ZM83.2812 926.062V913.484H13.5156V926.062H83.2812ZM83.2812 958.484V945.984H13.5156V958.484H83.2812ZM158.575 926.062V913.484H88.8094V926.062H158.575ZM158.575 958.484V945.984H88.8094V958.484H158.575ZM233.869 926.062V913.484H164.103V926.062H233.869ZM233.869 958.484V945.984H164.103V958.484H233.869ZM309.163 926.062V913.484H239.397V926.062H309.163ZM309.163 958.484V945.984H239.397V958.484H309.163ZM384.456 926.062V913.484H314.691V926.062H384.456ZM384.456 958.484V945.984H314.691V958.484H384.456ZM459.75 926.062V913.484H389.984V926.062H459.75ZM459.75 958.484V945.984H389.984V958.484H459.75ZM535.044 926.062V913.484H465.278V926.062H535.044ZM535.044 958.484V945.984H465.278V958.484H535.044ZM610.338 926.062V913.484H540.572V926.062H610.338ZM610.338 958.484V945.984H540.572V958.484H610.338ZM685.631 926.062V913.484H615.866V926.062H685.631ZM685.631 958.484V945.984H615.866V958.484H685.631ZM760.925 926.062V913.484H691.159V926.062H760.925ZM760.925 958.484V945.984H691.159V958.484H760.925ZM836.219 926.062V913.484H766.453V926.062H836.219ZM836.219 958.484V945.984H766.453V958.484H836.219ZM911.513 926.062V913.484H841.747V926.062H911.513ZM911.513 958.484V945.984H841.747V958.484H911.513ZM986.806 926.062V913.484H917.041V926.062H986.806ZM986.806 958.484V945.984H917.041V958.484H986.806Z" fill="white"/>
</g>
<defs>
<clipPath id="clip0_433_294">
<rect width="1000" height="1000" fill="white"/>
</clipPath>
</defs>
</svg>
