<svg width="1000" height="1000" viewBox="0 0 1000 1000" fill="none" xmlns="http://www.w3.org/2000/svg">
<g clip-path="url(#clip0_433_298)">
<path d="M234.337 98.7969V87H162.697V98.7969H234.337ZM309.631 98.7969V87H237.991V98.7969H309.631ZM384.925 98.7969V87H313.284V98.7969H384.925ZM460.219 98.7969V87H388.578V98.7969H460.219ZM535.513 98.7969V87H463.872V98.7969H535.513ZM204.416 268.094V123.25H192.775V268.094H204.416ZM258.538 246.766L305.959 123.25H293.069L245.569 246.766H258.538ZM505.591 268.094V123.25H493.95V268.094H505.591ZM204.416 418.094V273.25H192.775V418.094H204.416ZM542.309 325.359C542.518 317.495 541.789 310.359 540.122 303.953C538.455 297.495 535.955 291.974 532.622 287.391C529.236 282.807 525.07 279.292 520.122 276.844C515.174 274.344 509.523 273.094 503.169 273.094C496.658 273.094 490.695 274.578 485.278 277.547C479.914 280.516 475.252 284.604 471.294 289.812C467.127 295.281 463.794 301.766 461.294 309.266C458.846 316.766 457.466 324.682 457.153 333.016C456.893 340.984 457.518 348.328 459.028 355.047C460.591 361.714 463.117 367.469 466.606 372.312C470.044 377.156 474.497 380.932 479.966 383.641C485.486 386.297 492.075 387.625 499.731 387.625C501.398 387.625 503.169 387.495 505.044 387.234C506.919 387.026 508.768 386.661 510.591 386.141C512.414 385.672 514.158 385.073 515.825 384.344C517.492 383.615 518.976 382.755 520.278 381.766L517.778 372.625C516.632 373.406 515.356 374.109 513.95 374.734C512.544 375.359 511.059 375.88 509.497 376.297C507.934 376.766 506.346 377.13 504.731 377.391C503.117 377.599 501.528 377.703 499.966 377.703C494.132 377.703 489.054 376.714 484.731 374.734C480.46 372.703 476.945 369.76 474.184 365.906C471.424 362.104 469.419 357.443 468.169 351.922C466.919 346.401 466.424 340.099 466.684 333.016C466.893 325.464 467.96 318.536 469.888 312.234C471.815 305.88 474.523 300.464 478.013 295.984C481.294 291.818 484.992 288.615 489.106 286.375C493.273 284.083 497.882 282.938 502.934 282.938C507.934 282.938 512.388 283.901 516.294 285.828C520.2 287.755 523.507 290.542 526.216 294.188C528.872 297.833 530.851 302.286 532.153 307.547C533.455 312.807 534.002 318.745 533.794 325.359C533.742 329.161 533.455 332.755 532.934 336.141C532.414 339.526 531.658 342.469 530.669 344.969C529.679 347.521 528.429 349.552 526.919 351.062C525.46 352.521 523.768 353.25 521.841 353.25C521.007 353.25 520.226 353.12 519.497 352.859C518.768 352.599 518.169 352.078 517.7 351.297C517.179 350.568 516.789 349.552 516.528 348.25C516.268 346.896 516.216 345.151 516.372 343.016L519.809 303.641C518.455 301.766 516.632 300.151 514.341 298.797C512.049 297.391 509.158 296.688 505.669 296.688C501.971 296.688 498.585 297.573 495.513 299.344C492.44 301.062 489.757 303.536 487.466 306.766C485.122 310.047 483.221 314.031 481.763 318.719C480.304 323.354 479.341 328.562 478.872 334.344C478.559 338.406 478.611 342.13 479.028 345.516C479.497 348.901 480.33 351.818 481.528 354.266C482.674 356.714 484.184 358.615 486.059 359.969C487.934 361.323 490.148 362 492.7 362C494.471 362 496.164 361.74 497.778 361.219C499.393 360.698 500.903 359.969 502.309 359.031C503.455 358.198 504.523 357.234 505.513 356.141C506.554 355.047 507.492 353.849 508.325 352.547C508.69 353.797 509.158 354.943 509.731 355.984C510.304 356.974 510.981 357.859 511.763 358.641C512.856 359.734 514.158 360.568 515.669 361.141C517.179 361.714 518.872 362 520.747 362C524.601 362 527.856 360.88 530.513 358.641C533.169 356.401 535.356 353.51 537.075 349.969C538.742 346.427 539.992 342.495 540.825 338.172C541.658 333.797 542.153 329.526 542.309 325.359ZM488.481 334.344C488.898 330.073 489.523 326.219 490.356 322.781C491.242 319.292 492.388 316.323 493.794 313.875C495.2 311.479 496.919 309.63 498.95 308.328C501.033 306.974 503.455 306.297 506.216 306.297C506.997 306.297 507.752 306.375 508.481 306.531C509.263 306.688 510.018 306.948 510.747 307.312L507.778 341.297L507.7 342.078C507.127 343.328 506.502 344.448 505.825 345.438C505.148 346.375 504.445 347.208 503.716 347.938C502.518 349.083 501.19 349.917 499.731 350.438C498.325 350.958 496.841 351.219 495.278 351.219C494.028 351.219 492.934 350.854 491.997 350.125C491.111 349.344 490.382 348.224 489.809 346.766C489.236 345.359 488.846 343.615 488.638 341.531C488.429 339.396 488.377 337 488.481 334.344ZM204.416 568.094V423.25H192.775V568.094H204.416ZM204.416 718.094V573.25H192.775V718.094H204.416ZM204.416 868.094V723.25H192.775V868.094H204.416ZM83.2812 926.062V913.484H13.5156V926.062H83.2812ZM83.2812 958.484V945.984H13.5156V958.484H83.2812ZM158.575 926.062V913.484H88.8094V926.062H158.575ZM158.575 958.484V945.984H88.8094V958.484H158.575ZM233.869 926.062V913.484H164.103V926.062H233.869ZM233.869 958.484V945.984H164.103V958.484H233.869ZM309.163 926.062V913.484H239.397V926.062H309.163ZM309.163 958.484V945.984H239.397V958.484H309.163ZM384.456 926.062V913.484H314.691V926.062H384.456ZM384.456 958.484V945.984H314.691V958.484H384.456ZM459.75 926.062V913.484H389.984V926.062H459.75ZM459.75 958.484V945.984H389.984V958.484H459.75ZM535.044 926.062V913.484H465.278V926.062H535.044ZM535.044 958.484V945.984H465.278V958.484H535.044ZM610.338 926.062V913.484H540.572V926.062H610.338ZM610.338 958.484V945.984H540.572V958.484H610.338ZM685.631 926.062V913.484H615.866V926.062H685.631ZM685.631 958.484V945.984H615.866V958.484H685.631ZM760.925 926.062V913.484H691.159V926.062H760.925ZM760.925 958.484V945.984H691.159V958.484H760.925ZM836.219 926.062V913.484H766.453V926.062H836.219ZM836.219 958.484V945.984H766.453V958.484H836.219ZM911.513 926.062V913.484H841.747V926.062H911.513ZM911.513 958.484V945.984H841.747V958.484H911.513ZM986.806 926.062V913.484H917.041V926.062H986.806ZM986.806 958.484V945.984H917.041V958.484H986.806Z" fill="white"/>
</g>
<defs>
<clipPath id="clip0_433_298">
<rect width="1000" height="1000" fill="white"/>
</clipPath>
</defs>
</svg>
