<svg width="100%" height="100%" viewBox="0 0 800 768" preserveAspectRatio="none" fill="none" xmlns="http://www.w3.org/2000/svg">
<path d="M33.6228 765.68L46.2313 448.122H69.538L56.9294 765.68H90.5522L120.927 2.32056H87.3045L75.6512 295.45H52.3445L63.9978 2.32056H30.3751L0 765.68H33.6228Z" fill="#0019FF"/>
<path d="M133.854 765.68L143.788 617.079H170.151L169.005 765.68H203.01L202.245 2.32056H161.745L100.04 765.68H133.854ZM172.252 482.728H152.767L176.264 140.743H176.646L172.252 482.728Z" fill="#0019FF"/>
<path d="M268.09 765.68H302.476L332.852 2.32056H300.948L287.193 428.784H286.62L277.641 2.32056H243.063L212.688 765.68H244.592L258.538 340.234L258.92 338.198L268.09 765.68Z" fill="#0019FF"/>
<path d="M408.439 766.697L425.059 351.43H379.401L373.861 488.835H385.896L383.413 548.886C381.502 597.741 379.21 646.595 367.747 646.595C358.96 646.595 356.285 621.15 358.004 578.402L373.096 200.794C375.007 150.921 378.828 120.387 389.335 121.405C398.122 122.422 398.505 154.992 395.83 220.132L394.111 261.863H427.733L430.026 204.865C436.33 49.1399 421.811 0 393.155 0C362.398 0 345.014 61.3537 338.327 227.257L325.91 540.743C320.37 679.165 325.337 768 353.802 768C368.32 768 376.726 763.644 386.278 698.504H386.66L385.514 766.697H408.439Z" fill="#0019FF"/>
<path d="M458.044 765.68L478.868 167.206H479.25L478.485 765.68H503.511L551.08 167.206H551.462L524.144 765.68H556.238L586.613 2.32056H539.618L503.702 453.211H503.32L503.894 2.32056H456.516L426.141 765.68H458.044Z" fill="#0019FF"/>
<path d="M601.002 765.68L610.936 617.079H637.299L636.153 765.68H670.158L669.394 2.32056H628.894L567.188 765.68H601.002ZM639.401 482.728H619.915L643.413 140.743H643.795L639.401 482.728Z" fill="#0019FF"/>
<path d="M735.238 765.68H769.625L800 2.32056H768.097L754.342 428.784H753.769L744.79 2.32056H710.212L679.837 765.68H711.74L725.686 340.234L726.068 338.198L735.238 765.68Z" fill="#0019FF"/>
</svg>
